<svg id="Layer_1" data-name="Layer 1" xmlns="http://www.w3.org/2000/svg" viewBox="0 0 186.94 186.94"><defs><style>.cls-1{fill:#3882a5;}.cls-2{fill:none;stroke:#e7f6fd;stroke-linecap:round;stroke-miterlimit:10;stroke-width:7px;}</style></defs><rect class="cls-1" width="186.94" height="186.94" rx="27.25"/><path class="cls-2" d="M243.18,490.45a17,17,0,0,0-17,17,16.84,16.84,0,0,0,7.21,13.77c5.18,3.78,10.86,7.3,14.88,12.47a34.8,34.8,0,0,1,6.87,19.44c0,.57,0,1.15,0,1.72A36.09,36.09,0,0,1,219.08,591l-48.74-.07H137.27l48.79.07a33,33,0,0,0,33-33c0-16.08-10.82-25.18-18.4-30.65l2.84,2c3.86-5.42,6.52-10.34,6.52-16.45a23.55,23.55,0,0,0-23.55-23.55l-49.27-.26a7.92,7.92,0,0,0-7.91,7.92V582.9a7.91,7.91,0,0,0,7.91,7.92h0c28.2,0,49.85-22.78,49.85-50.88s-21.64-50.89-49.84-50.89" transform="translate(-98.77 -446.53)"/></svg>